<svg width="40" height="27" viewBox="0 0 40 27" fill="none" xmlns="http://www.w3.org/2000/svg">
<path fill-rule="evenodd" clip-rule="evenodd" d="M1.52472 20.3857C0.600285 20.3857 0 19.9175 0 19.0771C0 18.4888 0.312148 18.0806 0.960456 17.3482L4.64621 13.2063V5.49861C4.64621 1.92091 6.62715 0 10.1448 0H19.3412C22.8589 0 24.8398 1.92091 24.8398 5.49861V6.25974C24.0762 6.33683 23.4285 6.55363 22.9069 6.90403V5.49861C22.9069 3.08547 21.6823 1.93292 19.3412 1.93292H10.1568C7.81571 1.93292 6.57912 3.08547 6.57912 5.49861V13.2783C6.57912 13.9506 6.48308 14.2868 6.01486 14.743L2.19704 18.5848H5.6787C6.327 18.5848 6.57912 18.8369 6.57912 19.4853V20.962C6.57912 23.3871 7.81571 24.5277 10.1568 24.5277H19.3412C20.3338 24.5277 21.1257 24.3226 21.7086 23.9016C21.9762 24.5614 22.3992 25.0763 22.9661 25.4387C22.061 26.1132 20.8422 26.4606 19.3412 26.4606H10.1448C6.61514 26.4606 4.64621 24.5397 4.64621 20.962V20.3857H1.52472ZM23.9993 24.3241C23.7211 24.7613 23.3757 25.1335 22.9661 25.4387C23.622 25.858 24.4706 26.0734 25.4941 26.0734H32.3914C35.0386 26.0734 36.5153 24.6327 36.5153 21.9494V21.5172H38.8565C39.5498 21.5172 40 21.1661 40 20.5358C40 20.0945 39.7659 19.7884 39.2797 19.2391L36.5153 16.1327V10.3519C36.5153 7.66864 35.0296 6.22796 32.3914 6.22796H25.4941C25.2674 6.22796 25.0493 6.23859 24.8398 6.25974V7.72346C25.043 7.69286 25.2612 7.67765 25.4941 7.67765H32.3824C34.1382 7.67765 35.0657 8.54206 35.0657 10.3519V16.1867C35.0657 16.6909 35.1377 16.943 35.4889 17.2852L38.3522 20.1666H35.741C35.2547 20.1666 35.0657 20.3557 35.0657 20.8419V21.9494C35.0657 23.7683 34.1382 24.6237 32.3824 24.6237H25.4941C24.8984 24.6237 24.3991 24.5252 23.9993 24.3241Z" fill="#DBDBDB"/>
<path d="M24.8398 6.25974C24.0762 6.33683 23.4285 6.55363 22.9069 6.90403V9.47396C23.1307 8.45714 23.7838 7.88248 24.8398 7.72346V6.25974Z" fill="#DBDBDB"/>
<path d="M21.7086 23.9016C21.9762 24.5614 22.3992 25.0763 22.9661 25.4387C23.3757 25.1335 23.7211 24.7613 23.9993 24.3241C23.2301 23.937 22.8295 23.1698 22.82 21.9923C22.6618 22.8498 22.2887 23.4826 21.7086 23.9016Z" fill="#DBDBDB"/>
<path d="M22.9069 9.47396V6.90403C21.9065 7.57611 21.3702 8.73973 21.3702 10.3519V21.9494C21.3702 22.6984 21.4852 23.3505 21.7086 23.9016C22.2887 23.4826 22.6618 22.8498 22.82 21.9923C22.8199 21.978 22.8198 21.9638 22.8198 21.9494V10.3519C22.8198 10.0294 22.849 9.73689 22.9069 9.47396Z" fill="#DBDBDB"/>
<path fill-rule="evenodd" clip-rule="evenodd" d="M24.8398 7.72346C25.043 7.69286 25.2612 7.67765 25.4941 7.67765H32.3824C34.1382 7.67765 35.0657 8.54206 35.0657 10.3519V16.1867C35.0657 16.6909 35.1377 16.943 35.4889 17.2852L38.3522 20.1666H35.741C35.2547 20.1666 35.0657 20.3557 35.0657 20.8419V21.9494C35.0657 23.7683 34.1382 24.6237 32.3824 24.6237H25.4941C24.8984 24.6237 24.3991 24.5252 23.9993 24.3241C23.2301 23.937 22.8295 23.1698 22.82 21.9923L22.8198 21.9494V10.3519C22.8198 10.0294 22.849 9.73689 22.9069 9.47396C23.1307 8.45714 23.7838 7.88248 24.8398 7.72346ZM28.9548 18.2277C28.5135 18.2277 28.2704 17.962 28.2569 17.5118L28.1759 13.2033C28.1714 13.1492 28.1714 13.0862 28.1714 13.0412C28.1714 12.5595 28.482 12.2713 28.9548 12.2713C29.4275 12.2713 29.7336 12.5595 29.7336 13.0412C29.7336 13.0862 29.7336 13.1492 29.7291 13.2033L29.6526 17.5118C29.6391 17.962 29.3915 18.2277 28.9548 18.2277ZM28.9548 20.8794C28.4505 20.8794 28.0408 20.4922 28.0408 20.0015C28.0408 19.5153 28.4505 19.1281 28.9548 19.1281C29.4545 19.1281 29.8597 19.5153 29.8597 20.0015C29.8597 20.4922 29.4545 20.8794 28.9548 20.8794ZM24.5482 10.1808C24.5482 9.62852 24.9959 9.1808 25.5482 9.1808H33.0397C33.592 9.1808 34.0397 9.62852 34.0397 10.1808C34.0397 10.7331 33.592 11.1808 33.0397 11.1808H25.5482C24.9959 11.1808 24.5482 10.7331 24.5482 10.1808Z" fill="#DBDBDB"/>
<path fill-rule="evenodd" clip-rule="evenodd" d="M22.9069 5.49861V6.90403C21.9065 7.57611 21.3702 8.73973 21.3702 10.3519V21.9494C21.3702 22.6984 21.4852 23.3505 21.7086 23.9016C21.1257 24.3226 20.3338 24.5277 19.3412 24.5277H10.1568C7.81571 24.5277 6.57912 23.3871 6.57912 20.962V19.4853C6.57912 18.8369 6.327 18.5848 5.6787 18.5848H2.19704L6.01486 14.743C6.48308 14.2868 6.57912 13.9506 6.57912 13.2783V5.49861C6.57912 3.08547 7.81571 1.93292 10.1568 1.93292H19.3412C21.6823 1.93292 22.9069 3.08547 22.9069 5.49861ZM14.3888 15.6855C13.7946 15.6855 13.4104 15.2953 13.4104 14.725V14.5029C13.4104 13.5724 13.9926 12.9602 14.8511 12.4019C15.7635 11.8256 16.1717 11.4414 16.1717 10.6911C16.1717 9.8987 15.4814 9.37645 14.5989 9.37645C13.8546 9.37645 13.2963 9.70061 13.0202 10.523C12.8581 10.9192 12.5039 11.1473 12.0657 11.1473C11.4835 11.1473 11.1293 10.7811 11.1353 10.2349C11.1353 9.95873 11.2013 9.66459 11.3454 9.38246C11.8676 8.32595 13.1282 7.67765 14.695 7.67765C16.808 7.67765 18.3267 8.80018 18.3267 10.6611C18.3267 11.8016 17.7384 12.582 16.6459 13.2723C15.6494 13.8906 15.3853 14.1727 15.3133 14.803C15.3133 14.824 15.3103 14.8496 15.3073 14.8751C15.3043 14.9006 15.3013 14.9261 15.3013 14.9471C15.2172 15.4093 14.9051 15.6855 14.3888 15.6855ZM14.4128 19.1311C13.7405 19.1311 13.2003 18.6148 13.2003 17.9605C13.2003 17.3122 13.7405 16.796 14.4128 16.796C15.0792 16.796 15.6254 17.3122 15.6254 17.9605C15.6254 18.6148 15.0792 19.1311 14.4128 19.1311ZM8.98865 4.226C8.98865 3.67372 9.43637 3.226 9.98865 3.226H19.9774C20.5297 3.226 20.9774 3.67372 20.9774 4.226C20.9774 4.77829 20.5297 5.226 19.9774 5.226H9.98865C9.43637 5.226 8.98865 4.77829 8.98865 4.226Z" fill="#DBDBDB"/>
</svg>
